<svg xmlns="http://www.w3.org/2000/svg" xmlns:xlink="http://www.w3.org/1999/xlink" preserveAspectRatio="xMidYMid" width="28" height="28" viewBox="0 0 28 28">
  <defs>
    <style>
      .cls-1 {
        fill: #34495e;
        stroke: #000;
        stroke-linejoin: round;
        stroke-width: 1px;
        filter: url(#color-overlay-1);
        opacity: 0.8;
        fill-rule: evenodd;
      }
    </style>

    <filter id="color-overlay-1" filterUnits="userSpaceOnUse">
      <feFlood flood-color="#fff"/>
      <feComposite operator="in" in2="SourceGraphic"/>
      <feBlend in2="SourceGraphic" result="solidFill"/>
    </filter>
  </defs>
  <g style="fill: #34495e; filter: url(#color-overlay-1)">
    <path d="M24.245,6.014 C24.559,6.328 24.559,6.840 24.245,7.154 L17.969,13.423 C17.655,13.736 17.655,14.249 17.969,14.563 L24.242,20.835 C24.556,21.148 24.556,21.661 24.242,21.974 L21.957,24.252 C21.643,24.564 21.129,24.564 20.816,24.252 L14.545,17.980 C14.231,17.667 13.717,17.667 13.404,17.980 L7.128,24.247 C6.814,24.560 6.301,24.560 5.987,24.247 L3.705,21.967 C3.391,21.653 3.391,21.140 3.705,20.827 L9.982,14.559 C10.296,14.246 10.296,13.733 9.982,13.419 L3.710,7.147 C3.396,6.833 3.396,6.321 3.710,6.007 L5.994,3.730 C6.308,3.417 6.822,3.417 7.135,3.731 L13.406,10.001 C13.719,10.315 14.233,10.315 14.547,10.001 L20.822,3.735 C21.135,3.422 21.649,3.422 21.963,3.735 L24.245,6.014 Z" id="path-1" style="stroke: inherit; filter: none; fill: inherit" class="cls-1"/>
  </g>
  <use xlink:href="#path-1" style="stroke: #000; filter: none; fill: none"/>
</svg>
